<?xml version="1.0" encoding="utf-8"?>
<!-- Generator: Adobe Illustrator 23.0.2, SVG Export Plug-In . SVG Version: 6.00 Build 0)  -->
<svg version="1.1" id="Layer_1" xmlns="http://www.w3.org/2000/svg" xmlns:xlink="http://www.w3.org/1999/xlink" x="0px" y="0px"
	 viewBox="0 0 34 55.8" style="enable-background:new 0 0 34 55.8;" xml:space="preserve">
<style type="text/css">
	.st0{fill:#0078D2;}
</style>
<title>user-icon</title>
<g>
	<g id="Layer_1-2">
		<path class="st0" d="M24.6,3.9C22.8,1.5,20,0.1,17,0C11.2,0,6.5,5.7,6.5,12.7c0,2.3,0.5,4.6,1.6,6.7c1.2-0.8,2.5-1.5,3.9-1.9
			c-0.7-1.5-1.1-3.1-1.1-4.8c0-4.6,2.8-8.4,6.2-8.4c1.7,0.1,3.2,0.9,4.2,2.3c1.3,1.8,2,3.9,2,6.1c0,1.7-0.4,3.3-1.1,4.8
			c1.4,0.5,2.7,1.1,3.9,1.9c1-2.1,1.6-4.4,1.6-6.7C27.6,9.5,26.6,6.4,24.6,3.9"/>
		<path class="st0" d="M34,34.2c-0.6-3.7-2.8-6.9-6-8.8c-1.1-0.7-2.4-1.3-3.7-1.7l-3.5,3.5L17,31.1l-3.9-3.9l-3.5-3.5
			c-1.3,0.4-2.5,1-3.6,1.7c-3.2,1.9-5.3,5.1-5.9,8.7c0,0.1,0,0.2,0,0.2v21.4h4.3V34.4c0.6-2.6,2.4-4.7,4.7-5.9l8,7.9l8-8
			c2.4,1.1,4.2,3.3,4.8,5.9v0.3v21.1h4.3V34.4C34.1,34.3,34.1,34.2,34,34.2"/>
	</g>
</g>
</svg>
